<svg id="birth" xmlns="http://www.w3.org/2000/svg" width="43.969" height="46.652" viewBox="0 0 43.969 46.652">
  <g id="Grupo_4" data-name="Grupo 4" transform="translate(0.908 13.807)">
    <g id="Grupo_3" data-name="Grupo 3" transform="translate(0)">
      <path id="Trazado_22" data-name="Trazado 22" d="M38.571,151.874a10.411,10.411,0,0,0-6.974.636c-3.85,1.54-5.911,5.03-6.908,7.391a11.319,11.319,0,0,0,5.833,1.545c5.074,0,9.25-3.079,9.315-6.866v-2.215A8.589,8.589,0,0,0,38.571,151.874Z" transform="translate(-24.689 -151.527)" fill="#2b4a20"/>
    </g>
  </g>
  <g id="Grupo_6" data-name="Grupo 6" transform="translate(0 0)">
    <g id="Grupo_5" data-name="Grupo 5">
      <path id="Trazado_23" data-name="Trazado 23" d="M58.695,6.946l-19.2-2.425A5.784,5.784,0,0,0,34.115.005a5.741,5.741,0,0,0-5.972,5.737c0,3.208,5.675,5.341,5.37,10.245v.905a8.847,8.847,0,0,1-3.7,6.877,13.693,13.693,0,0,1-8.344,2.688,14.225,14.225,0,0,1-6.7-1.626l-.044.194.228.443a9.676,9.676,0,0,0,5.789,4.446,16.26,16.26,0,0,0,3.068.673l-1.6,6.657h5.134v9.409h5.521V43.922H30.07V37.244h3.335l1.243,2.345,2.413-1.279-2.013-3.8H30.07V30.326c4.335-.885,8.131-3.155,9.812-5.912,3.827-6.274.379-12.234-1.418-14.964l7.442-.921C44.878,12.934,42.774,22.167,42.774,24A4.921,4.921,0,1,0,52.6,24c0-1.892-2.248-11.694-3.233-15.9ZM27.339,34.513H25.673l.914-3.792q.375-.009.752-.032v3.824Z" transform="translate(-14.726 -0.001)" fill="#2b4a20"/>
    </g>
  </g>
</svg>
