<svg id="unemployment" xmlns="http://www.w3.org/2000/svg" width="36.54" height="36.54" viewBox="0 0 36.54 36.54">
  <path id="Trazado_17" data-name="Trazado 17" d="M302.071,183.141a1.071,1.071,0,0,0,1.07-1.07V181H301v1.071A1.071,1.071,0,0,0,302.071,183.141Z" transform="translate(-279.519 -168.083)" fill="#2b4a20"/>
  <path id="Trazado_18" data-name="Trazado 18" d="M6.494,10.776h6.423v2.141H19.34V10.776h6.423v1.211l6.423-4.282V4.282H23.214L21.073,0H11.185L9.044,4.282H0V7.706l6.494,4.282Zm6.014-8.635h7.241L20.82,4.282H11.438Z" transform="translate(0)" fill="#2b4a20"/>
  <path id="Trazado_19" data-name="Trazado 19" d="M122.071,183.141a1.071,1.071,0,0,0,1.07-1.07V181H121v1.071A1.071,1.071,0,0,0,122.071,183.141Z" transform="translate(-112.365 -168.083)" fill="#2b4a20"/>
  <path id="Trazado_20" data-name="Trazado 20" d="M27.9,150.948a10.619,10.619,0,0,1,4.282.907v-7.828L25.7,148.35a3.2,3.2,0,0,1-6.164.456H12.72a3.2,3.2,0,0,1-6.164-.456L0,144.027v15.485H17.416A10.723,10.723,0,0,1,27.9,150.948Z" transform="translate(0 -133.748)" fill="#2b4a20"/>
  <path id="Trazado_21" data-name="Trazado 21" d="M279.564,271a8.6,8.6,0,0,0,0,17.2,8.6,8.6,0,1,0,0-17.2Zm4.54,11.591-1.514,1.514-3.026-3.026-3.026,3.026-1.514-1.514,3.026-3.026-3.026-3.026,1.514-1.514,3.026,3.026,3.026-3.026,1.514,1.514-3.026,3.026Z" transform="translate(-251.66 -251.66)" fill="#2b4a20"/>
</svg>
