<svg id="register_1_" data-name="register (1)" xmlns="http://www.w3.org/2000/svg" width="20.224" height="20.224" viewBox="0 0 20.224 20.224">
  <path id="Trazado_28" data-name="Trazado 28" d="M13.061,20.7H2.107A2.109,2.109,0,0,1,0,18.589V5.107A2.109,2.109,0,0,1,2.107,3H3.792a.421.421,0,0,1,0,.843H2.107A1.266,1.266,0,0,0,.843,5.107V18.589a1.266,1.266,0,0,0,1.264,1.264H13.061a1.266,1.266,0,0,0,1.264-1.264V5.107a1.266,1.266,0,0,0-1.264-1.264H11.376a.421.421,0,1,1,0-.843h1.685a2.109,2.109,0,0,1,2.107,2.107V18.589A2.109,2.109,0,0,1,13.061,20.7Z" transform="translate(0 -0.472)" fill="#2b4a20"/>
  <path id="Trazado_29" data-name="Trazado 29" d="M11.163,5.056h-5.9A1.266,1.266,0,0,1,4,3.792V2.107a.421.421,0,0,1,.421-.421H6.149a2.107,2.107,0,0,1,4.129,0h1.727a.421.421,0,0,1,.421.421V3.792A1.266,1.266,0,0,1,11.163,5.056ZM4.843,2.528V3.792a.422.422,0,0,0,.421.421h5.9a.422.422,0,0,0,.421-.421V2.528H9.9a.421.421,0,0,1-.421-.421,1.264,1.264,0,0,0-2.528,0,.421.421,0,0,1-.421.421Z" transform="translate(-0.629)" fill="#2b4a20"/>
  <path id="Trazado_30" data-name="Trazado 30" d="M21.685,18.64a.422.422,0,0,1-.377-.233l-1.086-2.172A2.116,2.116,0,0,1,20,15.293V7.685a1.685,1.685,0,1,1,3.371,0v7.608a2.116,2.116,0,0,1-.222.942l-1.086,2.172a.422.422,0,0,1-.377.233Zm0-11.8a.844.844,0,0,0-.843.843v7.608a1.279,1.279,0,0,0,.133.565l.71,1.418.71-1.418a1.279,1.279,0,0,0,.133-.565V7.685A.844.844,0,0,0,21.685,6.843Zm1.086,9.2h.008Z" transform="translate(-3.147 -0.944)" fill="#2b4a20"/>
  <path id="Trazado_31" data-name="Trazado 31" d="M12.691,9.843H3.421a.421.421,0,0,1,0-.843h9.269a.421.421,0,0,1,0,.843Z" transform="translate(-0.472 -1.416)" fill="#2b4a20"/>
  <path id="Trazado_32" data-name="Trazado 32" d="M12.691,12.843H3.421a.421.421,0,0,1,0-.843h9.269a.421.421,0,0,1,0,.843Z" transform="translate(-0.472 -1.888)" fill="#2b4a20"/>
  <path id="Trazado_33" data-name="Trazado 33" d="M12.691,15.843H3.421a.421.421,0,1,1,0-.843h9.269a.421.421,0,0,1,0,.843Z" transform="translate(-0.472 -2.36)" fill="#2b4a20"/>
  <path id="Trazado_34" data-name="Trazado 34" d="M12.691,18.843H3.421a.421.421,0,1,1,0-.843h9.269a.421.421,0,0,1,0,.843Z" transform="translate(-0.472 -2.832)" fill="#2b4a20"/>
</svg>
