<svg xmlns="http://www.w3.org/2000/svg" width="29.359" height="37.032" viewBox="0 0 29.359 37.032">
  <path id="church_1_" data-name="church (1)" d="M80.078,11.429c-1.938-2.112-2.76-2.4-3.359-2.4a3.066,3.066,0,0,0-2.793,1.83H71.062V8.48a3.062,3.062,0,0,0,1.841-2.8c0-.6-.291-1.421-2.4-3.359C69.454,1.362,67.721,0,67.721,0s-1.733,1.362-2.78,2.323c-2.112,1.938-2.4,2.76-2.4,3.359a3.062,3.062,0,0,0,1.841,2.8v2.375H61.516a3.066,3.066,0,0,0-2.793-1.83c-.6,0-1.421.291-3.359,2.4-.961,1.047-2.323,2.78-2.323,2.78s1.362,1.733,2.323,2.78c1.938,2.112,2.76,2.4,3.359,2.4a3.058,3.058,0,0,0,2.8-1.852h2.852V28.552a3.062,3.062,0,0,0-1.841,2.8c0,.6.291,1.421,2.4,3.359,1.047.961,2.78,2.323,2.78,2.323s1.733-1.362,2.78-2.323c2.112-1.938,2.4-2.76,2.4-3.359a3.062,3.062,0,0,0-1.841-2.8V17.539h2.852a3.058,3.058,0,0,0,2.8,1.852c.6,0,1.421-.291,3.359-2.4.961-1.047,2.323-2.78,2.323-2.78S81.038,12.475,80.078,11.429Z" transform="translate(-53.041)" fill="#2b4a20"/>
</svg>
