<svg xmlns="http://www.w3.org/2000/svg" width="37.785" height="47.83" viewBox="0 0 37.785 47.83">
  <g id="document" transform="translate(-38.6)">
    <g id="Grupo_10" data-name="Grupo 10" transform="translate(38.6 0)">
      <g id="Grupo_9" data-name="Grupo 9" transform="translate(0 0)">
        <path id="Trazado_43" data-name="Trazado 43" d="M76.333,10.617c-.052,0-.052-.052-.1-.1s-.052-.1-.1-.156L67.173.312c-.052-.052-.156-.1-.208-.156-.052,0-.052-.052-.1-.052a.98.98,0,0,0-.416-.1H44.481A5.909,5.909,0,0,0,38.6,5.881V41.949a5.909,5.909,0,0,0,5.881,5.881H70.5a5.909,5.909,0,0,0,5.881-5.881V10.982C76.385,10.878,76.333,10.721,76.333,10.617Zm-8.9-7.078,5.777,6.506H67.433ZM74.408,41.9a3.91,3.91,0,0,1-3.9,3.955H44.481a3.9,3.9,0,0,1-3.9-3.9V5.829a3.9,3.9,0,0,1,3.9-3.9H65.456v9.056a.988.988,0,0,0,.989.989h7.963V41.9Z" transform="translate(-38.6 0)" fill="#fff"/>
        <path id="Trazado_44" data-name="Trazado 44" d="M85.989,78.778h8.692a.988.988,0,0,0,.989-.989.957.957,0,0,0-.989-.989H85.989a.989.989,0,1,0,0,1.978Z" transform="translate(-78.963 -66.807)" fill="#fff"/>
        <path id="Trazado_45" data-name="Trazado 45" d="M94.681,275.6H85.989a.989.989,0,1,0,0,1.978h8.692a.988.988,0,0,0,.989-.989A1.024,1.024,0,0,0,94.681,275.6Z" transform="translate(-78.963 -239.74)" fill="#fff"/>
        <path id="Trazado_46" data-name="Trazado 46" d="M85,128.189a.988.988,0,0,0,.989.989H109.2a.989.989,0,0,0,0-1.978H85.989A.988.988,0,0,0,85,128.189Z" transform="translate(-78.963 -110.649)" fill="#fff"/>
        <path id="Trazado_47" data-name="Trazado 47" d="M109.2,164.8H85.989a.989.989,0,1,0,0,1.978H109.2a.988.988,0,0,0,.989-.989A.957.957,0,0,0,109.2,164.8Z" transform="translate(-78.963 -143.357)" fill="#fff"/>
        <path id="Trazado_48" data-name="Trazado 48" d="M109.2,202H85.989a.989.989,0,1,0,0,1.978H109.2a.988.988,0,0,0,.989-.989A.957.957,0,0,0,109.2,202Z" transform="translate(-78.963 -175.717)" fill="#fff"/>
        <path id="Trazado_49" data-name="Trazado 49" d="M109.2,239.2H85.989a.989.989,0,1,0,0,1.978H109.2a.989.989,0,1,0,0-1.978Z" transform="translate(-78.963 -208.077)" fill="#fff"/>
      </g>
    </g>
  </g>
</svg>
