<svg id="law" xmlns="http://www.w3.org/2000/svg" width="40.343" height="40.345" viewBox="0 0 40.343 40.345">
  <path id="Trazado_12" data-name="Trazado 12" d="M242.172,421.75h18.991a1.182,1.182,0,0,1,1.182,1.182v4.748a1.182,1.182,0,0,1-1.182,1.182H242.172a1.182,1.182,0,0,1-1.182-1.182v-4.748A1.182,1.182,0,0,1,242.172,421.75Z" transform="translate(-222.001 -388.517)" fill="#2b4a20"/>
  <g id="Grupo_2" data-name="Grupo 2" transform="translate(0 0)">
    <path id="Trazado_13" data-name="Trazado 13" d="M1.05,240.527l12.6-12.6,5.029,5.029-12.6,12.6a3.556,3.556,0,0,1-5.029-5.029Z" transform="translate(-0.011 -209.967)" fill="#2b4a20"/>
    <path id="Trazado_14" data-name="Trazado 14" d="M0,0H11.859V11.879H0Z" transform="translate(13.623 14.604) rotate(-45)" fill="#2b4a20"/>
    <path id="Trazado_15" data-name="Trazado 15" d="M297.735,191.972l1.685,1.686a1.182,1.182,0,0,1,0,1.672L289.349,205.4a1.182,1.182,0,0,1-1.671,0l-1.686-1.685a1.182,1.182,0,0,1,0-1.672l10.071-10.071A1.182,1.182,0,0,1,297.735,191.972Z" transform="translate(-263.138 -176.526)" fill="#2b4a20"/>
    <path id="Trazado_16" data-name="Trazado 16" d="M97.723,13.774a1.182,1.182,0,0,1-1.672,0l-1.686-1.686a1.182,1.182,0,0,1,0-1.672L104.437.346a1.182,1.182,0,0,1,1.672,0l1.686,1.686a1.182,1.182,0,0,1,0,1.672Z" transform="translate(-86.612 0)" fill="#2b4a20"/>
  </g>
</svg>
