<svg id="telefono" xmlns="http://www.w3.org/2000/svg" width="19.879" height="19.879" viewBox="0 0 19.879 19.879">
  <g id="Grupo_17" data-name="Grupo 17">
    <path id="Trazado_50" data-name="Trazado 50" d="M18.775,13.8a12.572,12.572,0,0,1-3.943-.629,1.108,1.108,0,0,0-1.121.271l-2.43,2.435A16.632,16.632,0,0,1,4,8.609l2.43-2.441A1.108,1.108,0,0,0,6.7,5.047,12.572,12.572,0,0,1,6.074,1.1,1.1,1.1,0,0,0,4.97,0H1.1A1.1,1.1,0,0,0,0,1.1,18.773,18.773,0,0,0,18.775,19.879a1.1,1.1,0,0,0,1.1-1.1V14.909A1.1,1.1,0,0,0,18.775,13.8Z" fill="#2b4a20"/>
  </g>
</svg>
