<svg xmlns="http://www.w3.org/2000/svg" width="42.265" height="50.659" viewBox="0 0 42.265 50.659">
  <g id="user_6_" data-name="user (6)" transform="translate(0 0)">
    <path id="Trazado_26" data-name="Trazado 26" d="M99.233,24.4a11.806,11.806,0,0,0,8.627-3.575,11.806,11.806,0,0,0,3.574-8.627,11.808,11.808,0,0,0-3.575-8.627,12.2,12.2,0,0,0-17.254,0A11.806,11.806,0,0,0,87.031,12.2a11.806,11.806,0,0,0,3.575,8.627A11.809,11.809,0,0,0,99.233,24.4Zm0,0" transform="translate(-78.42 0)" fill="#2b4a20"/>
    <path id="Trazado_27" data-name="Trazado 27" d="M42.162,261.8a30.135,30.135,0,0,0-.41-3.2,25.218,25.218,0,0,0-.787-3.218,15.9,15.9,0,0,0-1.323-3,11.327,11.327,0,0,0-2-2.6,8.8,8.8,0,0,0-2.866-1.8,9.9,9.9,0,0,0-3.659-.662,3.714,3.714,0,0,0-1.983.841c-.594.388-1.29.836-2.066,1.332a11.835,11.835,0,0,1-2.673,1.178,10.379,10.379,0,0,1-6.539,0,11.81,11.81,0,0,1-2.671-1.177c-.769-.491-1.464-.94-2.068-1.333a3.708,3.708,0,0,0-1.982-.841,9.893,9.893,0,0,0-3.658.663,8.79,8.79,0,0,0-2.866,1.8,11.328,11.328,0,0,0-1.994,2.6,15.926,15.926,0,0,0-1.323,3A25.278,25.278,0,0,0,.512,258.6a30.03,30.03,0,0,0-.41,3.2c-.067.969-.1,1.975-.1,2.991a8.412,8.412,0,0,0,2.5,6.364,8.994,8.994,0,0,0,6.438,2.348H33.329a8.992,8.992,0,0,0,6.437-2.348,8.408,8.408,0,0,0,2.5-6.364C42.264,263.772,42.23,262.765,42.162,261.8Zm0,0" transform="translate(0 -222.846)" fill="#2b4a20"/>
  </g>
</svg>
